<svg width="24" height="24" viewBox="0 0 24 24" fill="none" xmlns="http://www.w3.org/2000/svg">
<path d="M12.0002 2.00002C7.7107 2.00002 4.0627 4.70602 2.6422 8.50002H21.3577C19.9377 4.70602 16.2897 2.00002 12.0002 2.00002Z" fill="#0596D8"/>
<path d="M21.9999 12C21.9999 10.7665 21.7659 9.59098 21.3579 8.49998H2.64186C2.23386 9.59098 1.99986 10.7665 1.99986 12C1.99986 13.2335 2.23386 14.409 2.64186 15.5H21.3574C21.7659 14.409 21.9999 13.2335 21.9999 12Z" fill="#EA3B04"/>
<path d="M21.3582 15.5H2.6422C4.0627 19.294 7.7107 22 12.0002 22C16.2897 22 19.9377 19.294 21.3582 15.5Z" fill="#2D9B32"/>
<path d="M13.5154 12C13.5154 13.1055 12.6209 14 11.5154 14C10.4119 14 9.51538 13.1055 9.51538 12C9.51538 10.8945 10.4119 9.99998 11.5154 9.99998C12.6209 9.99998 13.5154 10.8945 13.5154 12Z" fill="white"/>
<path d="M13.6273 12C13.6273 12.92 12.8813 13.666 11.9613 13.666C11.0413 13.666 10.2953 12.92 10.2953 12C10.2953 11.08 11.0413 10.334 11.9613 10.334C12.8813 10.334 13.6273 11.08 13.6273 12Z" fill="#FF3D00"/>
<path d="M13.8888 10.8885L14.1018 11.486L14.6743 11.2145L14.4028 11.787L15.0003 12L14.4028 12.213L14.6743 12.7855L14.1018 12.514L13.8888 13.1115L13.6758 12.514L13.1033 12.7855L13.3768 12.213L12.7778 12L13.3773 11.787L13.1038 11.2145L13.6763 11.486L13.8888 10.8885Z" fill="white"/>
</svg>
