<svg width="112" height="18" viewBox="0 0 112 18" fill="none" xmlns="http://www.w3.org/2000/svg">
<path d="M7.10829 0H10.5587L17.6929 18H14.2166L12.4784 13.2353H5.08476L3.34661 18H0L7.10829 0ZM5.96682 10.8403H11.6223L8.84645 3.10084H8.76862L5.96682 10.8403Z" fill="white"/>
<path d="M18.912 0H32.9989V2.39496L22.2067 15.2773H33.2583V18H18.0818V15.4286L28.874 2.72269H18.912V0Z" fill="white"/>
<path d="M35.7458 0H40.3117L45.4224 14.0924H45.4743L50.4553 0H54.9693V18H51.8821V4.10924H51.8302L46.6936 18H44.0215L38.8848 4.10924H38.8329V18H35.7458V0Z" fill="white"/>
<path d="M58.8003 0H63.3662L68.4769 14.0924H68.5288L73.5098 0H78.0238V18H74.9366V4.10924H74.8847L69.7481 18H67.076L61.9394 4.10924H61.8875V18H58.8003V0Z" fill="white"/>
<path d="M86.8617 0H90.3121L97.4464 18H93.97L92.2319 13.2353H84.8382L83.1001 18H79.7535L86.8617 0ZM85.7203 10.8403H91.3758L88.5999 3.10084H88.5221L85.7203 10.8403Z" fill="white"/>
<path d="M99.2103 0H112V2.72269H102.453V7.43698H110.833V10.0084H102.453V18H99.2103V0Z" fill="white"/>
</svg>
