<svg width="56" height="48" viewBox="0 0 56 48" fill="none" xmlns="http://www.w3.org/2000/svg">
<path d="M55.6499 21.823C54.7245 21.832 53.7992 21.8181 52.8728 21.8131C52.5128 21.7694 52.4503 21.9491 52.4603 22.2539C52.4771 22.8058 52.5059 23.3618 52.366 23.9078C52.2222 24.4706 52.0377 24.6434 51.4367 24.7019C50.3953 24.8111 49.3479 24.7784 48.3026 24.7843C47.2899 24.836 46.2762 24.8131 45.2626 24.8022C44.5426 24.7943 43.8235 24.7784 43.1044 24.7625C41.7357 24.7317 41.3579 24.4012 41.346 23.0987C41.3301 21.2492 41.2597 19.3978 41.4808 17.5533C41.5124 17.3355 41.5652 17.1214 41.6385 16.914C41.8448 16.2905 42.2892 15.9153 42.9616 15.7932C43.1316 15.7554 43.3045 15.7319 43.4784 15.7227C44.4702 15.7137 45.462 15.7147 46.4538 15.7128C47.9554 15.6889 49.458 15.677 50.9596 15.7227C51.1447 15.7216 51.3281 15.7588 51.4982 15.8319C52.0724 15.9699 52.368 16.361 52.3958 17.051C52.4106 17.4163 52.4077 17.7826 52.3958 18.143C52.3908 18.3167 52.4473 18.3832 52.6348 18.3812C53.6379 18.3753 54.6399 18.3753 55.641 18.3812C55.8086 18.3812 55.8711 18.3306 55.8602 18.1628C55.8046 17.2694 55.7679 16.3689 55.6311 15.4824C55.4892 14.5612 54.9775 13.8841 54.1533 13.4146C53.6018 13.1009 52.9928 12.946 52.368 12.8318C51.5626 12.6849 50.7444 12.677 49.9331 12.6045C49.8121 12.1627 49.5205 11.8054 49.2775 11.4281C48.9194 10.8722 48.5971 10.2905 48.1022 9.82684C48.1022 9.69977 48.003 9.62036 47.9306 9.52902C42.2882 2.69605 34.92 -0.569048 25.8548 0.0811915C18.4796 0.609325 12.5446 3.89328 7.99509 9.4774C7.90979 9.58263 7.79673 9.67595 7.7759 9.8199C7.51505 10.0045 7.37918 10.2875 7.20958 10.5327C6.71367 11.2276 6.23959 11.9285 5.8746 12.6948C4.95518 12.7941 4.03278 12.8418 3.13122 13.0731C1.93508 13.3808 1.12182 14.0708 0.681457 15.1777C0.47735 15.6605 0.331825 16.1661 0.248022 16.6837C-0.0991142 19.1595 -0.0594609 21.6384 0.228166 24.1172C0.434464 25.8873 1.3043 27.1351 3.19272 27.5819C3.24727 27.9115 3.29189 28.243 3.35835 28.5696C3.86037 31.0763 4.77434 33.4822 6.06303 35.6895C6.59266 36.6008 7.15403 37.4953 7.8483 38.3064C7.90781 38.3927 7.9614 38.485 8.02884 38.5655C13.6703 45.3299 21.0048 48.5474 30.0164 47.924C36.8124 47.4534 42.4379 44.5655 46.9318 39.6595C47.3286 39.2286 47.7253 38.7958 48.0328 38.3024L42.2078 38.3093L48.0337 38.3024C48.0868 38.2508 48.1371 38.1964 48.1845 38.1396C49.3672 36.5969 50.3515 34.9116 51.1143 33.1233C51.8651 31.3913 52.3892 29.5694 52.6735 27.703C52.7588 27.6861 52.8431 27.6653 52.9294 27.6533C54.5381 27.427 55.4317 26.6606 55.7828 25.1378C56.01 24.154 55.9713 23.1444 55.999 22.1427C56.0109 21.8816 55.9137 21.82 55.6499 21.823ZM47.9068 27.9254C47.4951 29.749 46.8272 31.5051 45.9232 33.1412C45.1383 34.5343 44.1918 35.8299 43.1034 37.0009C42.7007 37.4367 42.552 37.8259 42.2108 38.3173C41.3856 39.2167 40.4305 39.9761 39.4228 40.675C36.2311 42.8908 32.6586 44.1555 28.728 44.3025C24.8203 44.4474 21.219 43.3554 17.9073 41.3799C16.5893 40.5925 15.3686 39.6525 14.2703 38.5794C14.189 38.4999 14.072 38.4443 14.0581 38.3143C14.0461 38.23 14.0016 38.1537 13.9341 38.1019C11.503 35.9245 9.6671 33.1623 8.60011 30.0766C8.3591 29.3817 8.11513 28.6868 8.0457 27.9551L7.88303 27.9402L8.0457 27.9551C8.8937 27.8817 9.74366 27.9273 10.5927 27.9095C12.1072 27.8787 13.6227 27.8588 15.1253 27.6603C16.8114 27.4379 17.7486 26.5603 18.0353 24.9402C18.2029 23.9892 18.194 23.0262 18.195 22.0613C18.195 21.8816 18.1126 21.825 17.9381 21.825C16.9353 21.825 15.9326 21.831 14.9309 21.825C14.7048 21.825 14.6621 21.9243 14.6591 22.1139C14.6522 22.6559 14.7068 23.2059 14.6036 23.74C14.4657 24.4597 14.2862 24.6334 13.5225 24.7218C12.6874 24.8211 11.8464 24.7714 11.0083 24.7953C9.86569 24.828 8.72113 24.8439 7.57657 24.7953C6.60856 24.7625 5.63456 24.836 4.67052 24.7039C3.94252 24.6047 3.67872 24.3485 3.5954 23.6487C3.45258 22.4822 3.54781 21.3088 3.53492 20.1394C3.52649 19.5224 3.5543 18.9055 3.61821 18.2919C3.64301 17.6327 3.69458 16.9785 4.11412 16.4146C4.30356 16.1089 4.60508 15.954 4.9423 15.8517C5.31955 15.7464 5.71016 15.6969 6.10173 15.7048C7.20959 15.7048 8.31844 15.7048 9.4263 15.7128C10.6036 15.7128 11.7819 15.7128 12.9592 15.7128C13.1444 15.7166 13.329 15.7368 13.5106 15.7733C14.2049 15.9034 14.552 16.2756 14.5887 16.9567C14.6085 17.3428 14.6026 17.73 14.5957 18.1172C14.5957 18.3038 14.67 18.3782 14.8654 18.3773C15.8473 18.3733 16.8289 18.3733 17.8101 18.3773C17.9896 18.3773 18.066 18.3107 18.0581 18.134C18.0114 17.1522 17.9986 16.1644 17.7754 15.2025C17.5404 14.1919 16.8233 13.5585 15.8503 13.1773C14.8773 12.7961 13.8667 12.7147 12.8381 12.6551C12.3492 12.6273 11.8582 12.6184 11.3683 12.5995L10.0621 12.6194L11.3683 12.5995C11.6807 12.0694 12.1012 11.6157 12.5148 11.1611C12.9284 10.7064 13.344 10.2964 13.7615 9.87052C13.7893 9.87052 13.9182 9.82387 13.7992 9.83181C16.6556 7.14548 20.5297 5.31984 24.4404 4.49091C29.3569 3.44953 33.8568 4.54253 38.1057 6.91417C39.495 7.68722 40.7726 8.64608 41.9034 9.7643L42.0819 9.83479C42.8386 10.5922 43.6023 11.3427 44.2411 12.1985C44.3452 12.3385 44.5009 12.4566 44.497 12.6541C43.9614 12.7584 43.4139 12.7187 42.8733 12.7733C42.1251 12.8346 41.3845 12.9676 40.6616 13.1704C39.644 13.4741 38.9636 14.1145 38.552 15.0407C38.1979 15.8485 37.9868 16.7118 37.9282 17.592C37.7586 19.8753 37.7298 22.1586 38.0849 24.4419C38.19 25.1199 38.4102 25.7632 38.8466 26.3211C39.4674 27.1153 40.3482 27.4677 41.3261 27.6514C42.5827 27.8876 43.8572 27.9224 45.1327 27.9383C46.058 27.9502 46.9844 27.9383 47.9098 27.9323C48.3065 27.9224 48.7032 27.9134 49.0999 27.9025C48.7002 27.9065 48.3035 27.9154 47.9068 27.9254Z" fill="white"/>
<path d="M36.5999 25.51C36.8238 24.6472 36.897 23.7521 36.8161 22.8644C36.7417 21.9173 36.5185 21.0169 35.6328 20.4252C35.496 20.3339 35.5634 20.2525 35.6269 20.1631C35.8418 19.8623 36.0029 19.5264 36.103 19.1704C36.3736 18.1782 36.4391 17.1411 36.2954 16.1227C36.1883 15.2789 35.9264 14.4847 35.3036 13.8464C34.5151 13.0383 33.4866 12.7991 32.3886 12.7961C28.1357 12.7852 23.8838 12.7961 19.6309 12.7852C19.2957 12.7852 19.2093 12.8844 19.2103 13.1942C19.2232 15.5459 19.2173 17.8977 19.2173 20.2495C19.2173 22.6013 19.2222 24.9739 19.2123 27.3366C19.2123 27.6255 19.2827 27.7337 19.609 27.7337C23.8937 27.7251 28.1787 27.7228 32.464 27.7268C33.1949 27.7313 33.923 27.6378 34.6291 27.4488C35.6745 27.1629 36.3232 26.5176 36.5999 25.51ZM23.002 15.8309C24.4511 15.8309 25.9011 15.8309 27.3512 15.8309C28.7397 15.8309 30.1193 15.8309 31.5039 15.8309C32.3866 15.8309 32.706 16.0969 32.8141 16.9348C32.8795 17.4231 32.8667 17.9187 32.7764 18.403C32.6663 18.9828 32.3122 19.2965 31.6993 19.2965C28.7784 19.3054 25.8565 19.2965 22.9356 19.3064C22.7124 19.3064 22.6569 19.2161 22.6579 19.0245C22.6579 18.0526 22.6668 17.0807 22.6579 16.1098C22.653 15.8577 22.7858 15.8299 23.002 15.8309ZM33.1582 24.3475C33.0491 24.5609 32.827 24.6453 32.5929 24.6761C32.3331 24.7047 32.0718 24.719 31.8104 24.7188C30.4159 24.7188 29.0204 24.7188 27.6259 24.7188C26.0777 24.7188 24.5304 24.7138 22.9832 24.7188C22.7472 24.7188 22.65 24.6692 22.6549 24.4269C22.6688 23.8214 22.6678 23.2148 22.6549 22.6092C22.6549 22.375 22.7442 22.3114 22.9822 22.3114C26.0122 22.3184 29.0422 22.3114 32.0722 22.3204C32.4858 22.3204 32.946 22.3412 33.1484 22.7681C33.3914 23.2823 33.426 23.8224 33.1582 24.3475Z" fill="white"/>
<path d="M39.8511 9.78119C39.5456 9.3702 39.0884 9.13293 38.6738 8.85C35.1221 6.42575 31.1945 5.2583 26.8127 5.55612C25.3584 5.65637 23.9214 5.92998 22.532 6.37115C20.7819 6.93627 19.1233 7.7536 17.6086 8.79739C17.1653 9.09521 16.6922 9.36523 16.352 9.79012C16.4889 9.82725 16.6313 9.83936 16.7725 9.82586H39.4315C39.5729 9.83698 39.7152 9.82184 39.8511 9.78119Z" fill="white"/>
<path d="M37.8183 38.3074H18.4501C18.341 38.3074 18.2329 38.3143 18.1238 38.3173H15.8337C15.9091 38.3928 15.9775 38.4752 16.0599 38.5427C17.0197 39.3387 18.0487 40.0473 19.1345 40.6602C21.6728 42.0651 24.5 42.867 27.3973 43.004C28.9889 43.074 30.5826 42.924 32.1332 42.5583C33.6349 42.2112 35.0888 41.6821 36.4625 40.9828C37.8957 40.2682 39.231 39.372 40.4357 38.3163H38.1457C38.0366 38.3163 37.9274 38.3074 37.8183 38.3074Z" fill="white"/>
<path d="M18.4375 34.8307C18.4578 34.6438 18.4637 34.4556 18.4553 34.2678C18.4345 33.4975 18.125 33.149 17.3365 32.9892C16.7752 32.876 16.2078 32.9068 15.6405 32.9028C15.0732 32.8988 14.5277 32.9475 13.9733 32.8859C13.5349 32.8363 13.405 32.6963 13.402 32.3102C13.402 31.9051 13.5667 31.6947 13.9822 31.652C14.8302 31.5636 15.6822 31.6053 16.5322 31.6172C16.6514 31.6103 16.769 31.6467 16.8636 31.7196C16.9582 31.7926 17.0233 31.8972 17.0469 32.0143C17.0906 32.1791 16.9775 32.4114 17.1749 32.4978C17.3326 32.5643 17.5389 32.5246 17.7244 32.5276C17.8553 32.5276 17.9862 32.5276 18.1211 32.5276C18.256 32.5276 18.3273 32.4809 18.3293 32.3459C18.3422 31.2688 18.0318 30.6354 16.8813 30.5252C15.9462 30.4519 15.0072 30.4397 14.0705 30.4885C13.7871 30.5007 13.5065 30.5491 13.2354 30.6324C12.9852 30.6958 12.7568 30.8258 12.5745 31.0087C12.3922 31.1915 12.2628 31.4203 12.1999 31.6708C12.1383 31.8929 12.1076 32.1224 12.1087 32.3528C12.1087 33.4379 12.7038 34.0325 13.8324 34.0464C14.2688 34.0464 14.7053 34.0464 15.1417 34.0464V34.0534C15.6653 34.0534 16.189 34.0534 16.7117 34.0534C16.9676 34.0534 17.163 34.1408 17.1838 34.4237C17.1934 34.4851 17.1898 34.5478 17.1732 34.6077C17.1567 34.6676 17.1275 34.7232 17.0877 34.7709C17.0478 34.8185 16.9983 34.8571 16.9423 34.8841C16.8864 34.911 16.8254 34.9256 16.7633 34.927C15.8062 34.9967 14.8458 35.0102 13.887 34.9677C13.6668 34.9598 13.4486 34.8535 13.4377 34.6282C13.4189 34.247 13.1878 34.2311 12.8902 34.249C12.7057 34.2619 12.5193 34.249 12.3338 34.2539C12.2108 34.2539 12.1354 34.2897 12.1156 34.4277C11.9966 35.2218 12.4846 35.9426 13.3058 36.026C14.6398 36.1739 15.9868 36.1609 17.3177 35.9872C18.0021 35.8929 18.3512 35.4998 18.4375 34.8307Z" fill="white"/>
<path d="M30.9655 30.5334C29.6174 30.4396 28.2643 30.4445 26.9169 30.5483C26.2088 30.5989 25.7535 30.9801 25.6087 31.6323C25.375 32.6771 25.3625 33.7592 25.572 34.8091C25.7247 35.5913 26.2474 35.9874 27.0706 36.0589C27.6905 36.1135 28.3114 36.0877 28.842 36.0957C29.695 36.0957 30.4587 36.1254 31.2134 35.9894C32.0188 35.8445 32.4036 35.4514 32.5107 34.6691C32.6142 33.8179 32.6314 32.9585 32.5623 32.1039C32.4998 31.1082 32.0019 30.6098 30.9655 30.5334ZM31.263 34.2313C31.2204 34.7525 31.0161 34.9352 30.4696 34.96C29.3915 35.0076 28.3124 34.9788 27.2362 34.9232C26.8752 34.9044 26.7483 34.7733 26.7453 34.4269C26.7394 33.6962 26.7453 32.9646 26.7681 32.2349C26.783 31.7961 26.9397 31.6691 27.4039 31.6621C27.9156 31.6542 28.4284 31.6621 28.9402 31.6621C29.4946 31.6492 30.0501 31.5976 30.6055 31.6552C31.0855 31.7048 31.2263 31.8358 31.2858 32.2985C31.3741 32.9398 31.3186 33.587 31.267 34.2313H31.263Z" fill="white"/>
<path d="M33.3479 30.5432C33.0831 30.5432 32.9839 30.6117 32.9888 30.8778C33.0037 31.6819 32.9948 32.487 32.9948 33.2921V35.1396C32.9948 36.0827 32.9948 36.0767 33.9945 36.0449C34.2068 36.038 34.2821 35.9705 34.2772 35.769C34.2673 35.2885 34.2772 34.807 34.2772 34.3265C34.2772 34.1607 34.302 34.0446 34.5212 34.0456C35.5566 34.0515 36.5921 34.0456 37.6276 34.0555C37.9856 34.0555 38.0778 34.1667 38.0868 34.5261C38.0977 34.9341 38.0996 35.3421 38.0868 35.7491C38.0818 35.9596 38.1492 36.0588 38.3843 36.0469C38.6019 36.0325 38.8203 36.0325 39.0379 36.0469C39.2769 36.0638 39.3722 35.9814 39.3652 35.7491C39.3513 35.3212 39.3652 34.8924 39.3582 34.4645C39.3582 34.1895 39.3107 33.9215 39.1292 33.6932C39.1113 33.6779 39.0968 33.6591 39.0866 33.6379C39.0764 33.6168 39.0706 33.5937 39.0697 33.5702C39.0687 33.5468 39.0727 33.5233 39.0812 33.5014C39.0897 33.4795 39.1027 33.4596 39.1193 33.443C39.393 33.1134 39.4436 32.7203 39.4456 32.3182C39.4545 31.0634 38.9427 30.5611 37.6335 30.5541C36.2043 30.5422 34.7761 30.5531 33.3479 30.5432ZM38.1502 32.1405C38.1899 32.8622 38.1195 32.9347 37.3697 32.9347C36.4542 32.9347 35.5388 32.9278 34.6243 32.9347C34.3525 32.9347 34.2703 32.8483 34.2693 32.5922C34.2693 31.6551 34.2573 31.6551 35.2373 31.6551H36.12C36.6208 31.6551 37.1227 31.6551 37.6236 31.6551C38.0292 31.67 38.1294 31.7643 38.1502 32.1405Z" fill="white"/>
<path d="M21.1584 34.0525C21.9648 34.0386 22.7711 34.0595 23.5775 34.0416C24.5435 34.0198 25.0355 33.5581 25.1088 32.6339C25.1237 32.4254 25.1237 32.216 25.1088 32.0075C25.0434 30.9899 24.5782 30.5571 23.512 30.5502C22.063 30.5412 20.614 30.5502 19.1649 30.5432C18.911 30.5432 18.8207 30.6167 18.8247 30.8659C18.8376 31.67 18.8296 32.4741 18.8296 33.2782C18.8296 34.1041 18.8356 34.9291 18.8296 35.7541C18.8296 35.9695 18.9021 36.0588 19.1272 36.0449C19.3523 36.031 19.5855 36.035 19.8136 36.0449C20.0119 36.0529 20.0873 35.9725 20.0793 35.7858C20.0704 35.5555 20.0694 35.3252 20.0793 35.0909C20.0952 34.7603 19.9316 34.3414 20.1478 34.121C20.364 33.9006 20.8153 34.0585 21.1584 34.0525ZM20.0793 32.617C20.0952 32.3983 20.0952 32.1786 20.0793 31.9598C20.0615 31.7196 20.1736 31.6551 20.4067 31.662C20.9075 31.6739 21.4084 31.662 21.9093 31.662C22.3893 31.662 22.8684 31.662 23.3474 31.662C23.7273 31.662 23.8116 31.7474 23.8274 32.0998C23.8631 32.894 23.8165 32.9367 22.9973 32.9367C22.1364 32.9367 21.2755 32.9297 20.4185 32.9367C20.1587 32.9466 20.0615 32.8612 20.0793 32.617Z" fill="white"/>
<path d="M45.5182 30.5431C44.5908 30.555 43.6635 30.5431 42.7411 30.5431C41.9556 30.5431 41.1701 30.5332 40.3845 30.5431C39.4116 30.559 39.5703 30.3446 39.5504 31.3889C39.5504 31.5875 39.6268 31.6629 39.838 31.6599C40.4381 31.65 41.0381 31.6599 41.6382 31.6599C42.0736 31.6599 42.0746 31.6599 42.0756 32.066V35.203C42.0756 36.0448 42.0756 36.0349 42.9464 36.0448C43.244 36.0448 43.3431 35.9714 43.3431 35.6765C43.3273 34.4743 43.3362 33.2721 43.3372 32.0699C43.3372 31.6609 43.3372 31.6609 43.7776 31.6599H45.0858C45.8891 31.6599 45.8792 31.6599 45.8792 30.8727C45.8792 30.6106 45.782 30.5391 45.5182 30.5431Z" fill="white"/>
<path d="M35.0067 42.6418L35.0457 42.6218L35.0057 42.6408L35.0067 42.6418Z" fill="white"/>
</svg>
