<svg width="115" height="36" viewBox="0 0 115 36" fill="none" xmlns="http://www.w3.org/2000/svg">
<rect width="115" height="36" fill="#E8EAEF"/>
<path d="M17.625 10.5V11.125H15.125V24.875H28.875V11.125H26.375V10.5H25.125V11.125H18.875V10.5H17.625ZM16.375 12.375H17.625V13H18.875V12.375H25.125V13H26.375V12.375H27.625V13.625H16.375V12.375ZM16.375 14.875H27.625V23.625H16.375V14.875Z" fill="#333333"/>
<path d="M45.15 13.032H46.354V23H44.856V15.888H42.574V14.782L42.798 14.768C43.5167 14.7213 44.0533 14.572 44.408 14.32C44.772 14.0587 45.0193 13.6293 45.15 13.032ZM53.8763 19.29H55.2063V20.592H53.8763V23H52.3783V20.592H47.4503V19.164L52.2383 13.032H53.8763V19.29ZM52.3923 19.29V14.796L48.8923 19.29H52.3923ZM57.5711 23H55.8771V21.334H57.5711V23ZM60.5309 13.032H61.7349V23H60.2369V15.888H57.9549V14.782L58.1789 14.768C58.8975 14.7213 59.4342 14.572 59.7889 14.32C60.1529 14.0587 60.4002 13.6293 60.5309 13.032ZM67.0275 23.224C65.7955 23.224 64.8575 22.776 64.2135 21.88C63.5695 20.984 63.2475 19.696 63.2475 18.016C63.2475 16.336 63.5695 15.048 64.2135 14.152C64.8575 13.256 65.7955 12.808 67.0275 12.808C68.2688 12.808 69.2068 13.256 69.8415 14.152C70.4855 15.0387 70.8075 16.3267 70.8075 18.016C70.8075 19.7053 70.4855 20.998 69.8415 21.894C69.2068 22.7807 68.2688 23.224 67.0275 23.224ZM67.0275 21.922C68.5115 21.922 69.2535 20.62 69.2535 18.016C69.2535 15.412 68.5115 14.11 67.0275 14.11C65.5528 14.11 64.8155 15.412 64.8155 18.016C64.8155 20.62 65.5528 21.922 67.0275 21.922ZM73.1433 23H71.4493V21.334H73.1433V23ZM75.7957 21.698H81.0037V23H74.1157L74.1577 22.37C74.195 21.6887 74.349 21.0353 74.6197 20.41C74.9277 19.6913 75.5623 19.0847 76.5237 18.59L77.6577 17.96C78.255 17.6427 78.6843 17.3207 78.9457 16.994C79.207 16.658 79.3377 16.252 79.3377 15.776C79.3377 15.2627 79.1743 14.8567 78.8477 14.558C78.5303 14.2593 78.087 14.11 77.5177 14.11C76.239 14.11 75.5997 14.7773 75.5997 16.112H74.1297C74.1203 15.0667 74.4143 14.2547 75.0117 13.676C75.609 13.0973 76.4583 12.808 77.5597 12.808C78.5677 12.808 79.3703 13.0787 79.9677 13.62C80.5743 14.1707 80.8777 14.8707 80.8777 15.72C80.8777 16.42 80.6817 17.036 80.2897 17.568C79.8977 18.1 79.2817 18.59 78.4417 19.038L77.4477 19.598C76.8783 19.9153 76.4677 20.228 76.2157 20.536C75.973 20.844 75.833 21.2313 75.7957 21.698ZM85.6623 23.224C84.4303 23.224 83.4923 22.776 82.8483 21.88C82.2043 20.984 81.8823 19.696 81.8823 18.016C81.8823 16.336 82.2043 15.048 82.8483 14.152C83.4923 13.256 84.4303 12.808 85.6623 12.808C86.9036 12.808 87.8416 13.256 88.4763 14.152C89.1203 15.0387 89.4423 16.3267 89.4423 18.016C89.4423 19.7053 89.1203 20.998 88.4763 21.894C87.8416 22.7807 86.9036 23.224 85.6623 23.224ZM85.6623 21.922C87.1463 21.922 87.8883 20.62 87.8883 18.016C87.8883 15.412 87.1463 14.11 85.6623 14.11C84.1876 14.11 83.4503 15.412 83.4503 18.016C83.4503 20.62 84.1876 21.922 85.6623 21.922ZM92.0242 21.698H97.2322V23H90.3442L90.3862 22.37C90.4235 21.6887 90.5775 21.0353 90.8482 20.41C91.1562 19.6913 91.7909 19.0847 92.7522 18.59L93.8862 17.96C94.4835 17.6427 94.9129 17.3207 95.1742 16.994C95.4355 16.658 95.5662 16.252 95.5662 15.776C95.5662 15.2627 95.4029 14.8567 95.0762 14.558C94.7589 14.2593 94.3155 14.11 93.7462 14.11C92.4675 14.11 91.8282 14.7773 91.8282 16.112H90.3582C90.3489 15.0667 90.6429 14.2547 91.2402 13.676C91.8375 13.0973 92.6869 12.808 93.7882 12.808C94.7962 12.808 95.5989 13.0787 96.1962 13.62C96.8029 14.1707 97.1062 14.8707 97.1062 15.72C97.1062 16.42 96.9102 17.036 96.5182 17.568C96.1262 18.1 95.5102 18.59 94.6702 19.038L93.6762 19.598C93.1069 19.9153 92.6962 20.228 92.4442 20.536C92.2015 20.844 92.0615 21.2313 92.0242 21.698ZM100.836 13.032H102.04V23H100.542V15.888H98.2595V14.782L98.4835 14.768C99.2022 14.7213 99.7389 14.572 100.094 14.32C100.458 14.0587 100.705 13.6293 100.836 13.032Z" fill="#333333"/>
</svg>
