<svg width="44" height="44" viewBox="0 0 44 44" fill="none" xmlns="http://www.w3.org/2000/svg">
<circle opacity="0.8" cx="22" cy="22" r="22" fill="white" fill-opacity="0.28"/>
<path d="M22.0001 11.0024C15.938 11.0024 11.0001 15.9403 11.0001 22.0024C11.0001 28.0645 15.938 33.0024 22.0001 33.0024C28.0622 33.0024 33.0001 28.0645 33.0001 22.0024C33.0001 15.9403 28.0622 11.0024 22.0001 11.0024ZM22.0001 13.2024C26.8733 13.2024 30.8001 17.1293 30.8001 22.0024C30.8001 26.4184 27.572 30.0468 23.3407 30.6907V24.6257H25.9017L26.3034 22.0239H23.3407V20.6017C23.3407 19.5204 23.693 18.5606 24.705 18.5606H26.3292V16.2897C26.0432 16.2512 25.4397 16.1673 24.299 16.1673C21.9164 16.1673 20.5198 17.4257 20.5198 20.2923V22.0239H18.0706V24.6257H20.5198V30.6692C16.3574 29.9674 13.2001 26.3697 13.2001 22.0024C13.2001 17.1293 17.127 13.2024 22.0001 13.2024Z" fill="white" fill-opacity="0.72"/>
</svg>
