<svg width="44" height="44" viewBox="0 0 44 44" fill="none" xmlns="http://www.w3.org/2000/svg">
<circle opacity="0.8" cx="22" cy="22" r="22" fill="white" fill-opacity="0.28"/>
<path d="M17.5999 12.1021C14.5672 12.1021 12.0999 14.5694 12.0999 17.6021V26.4021C12.0999 29.4347 14.5672 31.9021 17.5999 31.9021H26.3999C29.4326 31.9021 31.8999 29.4347 31.8999 26.4021V17.6021C31.8999 14.5694 29.4326 12.1021 26.3999 12.1021H17.5999ZM17.5999 14.3021H26.3999C28.2193 14.3021 29.6999 15.7827 29.6999 17.6021V26.4021C29.6999 28.2214 28.2193 29.702 26.3999 29.702H17.5999C15.7805 29.702 14.2999 28.2214 14.2999 26.4021V17.6021C14.2999 15.7827 15.7805 14.3021 17.5999 14.3021ZM27.4999 15.4021C27.2082 15.4021 26.9284 15.5179 26.7221 15.7242C26.5158 15.9305 26.3999 16.2103 26.3999 16.5021C26.3999 16.7938 26.5158 17.0736 26.7221 17.2799C26.9284 17.4862 27.2082 17.6021 27.4999 17.6021C27.7917 17.6021 28.0714 17.4862 28.2777 17.2799C28.484 17.0736 28.5999 16.7938 28.5999 16.5021C28.5999 16.2103 28.484 15.9305 28.2777 15.7242C28.0714 15.5179 27.7917 15.4021 27.4999 15.4021ZM21.9999 16.5021C18.9672 16.5021 16.4999 18.9694 16.4999 22.0021C16.4999 25.0347 18.9672 27.502 21.9999 27.502C25.0326 27.502 27.4999 25.0347 27.4999 22.0021C27.4999 18.9694 25.0326 16.5021 21.9999 16.5021ZM21.9999 18.7021C23.8193 18.7021 25.2999 20.1826 25.2999 22.0021C25.2999 23.8215 23.8193 25.302 21.9999 25.302C20.1805 25.302 18.6999 23.8215 18.6999 22.0021C18.6999 20.1826 20.1805 18.7021 21.9999 18.7021Z" fill="white" fill-opacity="0.72"/>
<path d="M17.5999 12.1021C14.5672 12.1021 12.0999 14.5694 12.0999 17.6021V26.4021C12.0999 29.4347 14.5672 31.9021 17.5999 31.9021H26.3999C29.4326 31.9021 31.8999 29.4347 31.8999 26.4021V17.6021C31.8999 14.5694 29.4326 12.1021 26.3999 12.1021H17.5999ZM17.5999 14.3021H26.3999C28.2193 14.3021 29.6999 15.7827 29.6999 17.6021V26.4021C29.6999 28.2214 28.2193 29.702 26.3999 29.702H17.5999C15.7805 29.702 14.2999 28.2214 14.2999 26.4021V17.6021C14.2999 15.7827 15.7805 14.3021 17.5999 14.3021ZM27.4999 15.4021C27.2082 15.4021 26.9284 15.5179 26.7221 15.7242C26.5158 15.9305 26.3999 16.2103 26.3999 16.5021C26.3999 16.7938 26.5158 17.0736 26.7221 17.2799C26.9284 17.4862 27.2082 17.6021 27.4999 17.6021C27.7917 17.6021 28.0714 17.4862 28.2777 17.2799C28.484 17.0736 28.5999 16.7938 28.5999 16.5021C28.5999 16.2103 28.484 15.9305 28.2777 15.7242C28.0714 15.5179 27.7917 15.4021 27.4999 15.4021ZM21.9999 16.5021C18.9672 16.5021 16.4999 18.9694 16.4999 22.0021C16.4999 25.0347 18.9672 27.502 21.9999 27.502C25.0326 27.502 27.4999 25.0347 27.4999 22.0021C27.4999 18.9694 25.0326 16.5021 21.9999 16.5021ZM21.9999 18.7021C23.8193 18.7021 25.2999 20.1826 25.2999 22.0021C25.2999 23.8215 23.8193 25.302 21.9999 25.302C20.1805 25.302 18.6999 23.8215 18.6999 22.0021C18.6999 20.1826 20.1805 18.7021 21.9999 18.7021Z" fill="white" fill-opacity="0.72"/>
</svg>
