<svg width="249" height="36" viewBox="0 0 249 36" fill="none" xmlns="http://www.w3.org/2000/svg">
<rect width="249" height="36" fill="black"/>
<path d="M20.778 13.032L17.446 17.862L20.974 23H19.238L17.936 21.082C17.4227 20.3353 16.9607 19.654 16.55 19.038C15.9153 19.9713 15.4533 20.6527 15.164 21.082L13.834 23H12.154L15.71 17.904L12.35 13.032H14.086L15.29 14.796C15.402 14.9827 15.6027 15.2813 15.892 15.692C16.004 15.8693 16.1393 16.084 16.298 16.336C16.466 16.5787 16.5593 16.714 16.578 16.742C16.6713 16.5927 17.11 15.9393 17.894 14.782L19.112 13.032H20.778ZM24.9828 15.608C26.0188 15.608 26.8588 15.9487 27.5028 16.63C28.1375 17.3207 28.4548 18.24 28.4548 19.388C28.4548 20.536 28.1421 21.4507 27.5168 22.132C26.8821 22.8227 26.0515 23.168 25.0248 23.168C23.9608 23.168 23.1255 22.8087 22.5188 22.09C21.9028 21.3807 21.5948 20.4613 21.5948 19.332V18.926H27.0548C26.9895 18.2167 26.7748 17.6847 26.4108 17.33C26.0561 16.966 25.5755 16.784 24.9688 16.784C24.5208 16.784 24.1381 16.8913 23.8208 17.106C23.5035 17.3207 23.2748 17.6147 23.1348 17.988H21.7348C21.9215 17.26 22.3041 16.6813 22.8828 16.252C23.4615 15.8227 24.1615 15.608 24.9828 15.608ZM25.0248 21.992C25.5755 21.992 26.0235 21.824 26.3688 21.488C26.7235 21.152 26.9428 20.6667 27.0268 20.032H23.0508C23.1161 20.6293 23.3215 21.1053 23.6668 21.46C24.0121 21.8147 24.4648 21.992 25.0248 21.992ZM33.4344 15.608C34.4424 15.608 35.2451 15.9487 35.8424 16.63C36.4398 17.3113 36.7384 18.2307 36.7384 19.388C36.7384 20.536 36.4398 21.4507 35.8424 22.132C35.2358 22.8227 34.4331 23.168 33.4344 23.168C32.3704 23.168 31.5678 22.748 31.0264 21.908V23H29.6824V13.032H31.0824V16.784C31.6238 16 32.4078 15.608 33.4344 15.608ZM31.6284 21.278C32.0018 21.7353 32.5151 21.964 33.1684 21.964C33.8218 21.964 34.3398 21.7307 34.7224 21.264C35.0958 20.8067 35.2824 20.1627 35.2824 19.332C35.2824 18.5293 35.0958 17.9087 34.7224 17.47C34.3491 17.0313 33.8311 16.812 33.1684 16.812C32.5244 16.812 32.0111 17.036 31.6284 17.484C31.2458 17.9507 31.0544 18.5853 31.0544 19.388C31.0544 20.1907 31.2458 20.8207 31.6284 21.278ZM41.0336 15.608C42.0696 15.608 42.9096 15.9487 43.5536 16.63C44.1883 17.3207 44.5056 18.24 44.5056 19.388C44.5056 20.536 44.1929 21.4507 43.5676 22.132C42.9329 22.8227 42.1023 23.168 41.0756 23.168C40.0116 23.168 39.1763 22.8087 38.5696 22.09C37.9536 21.3807 37.6456 20.4613 37.6456 19.332V18.926H43.1056C43.0403 18.2167 42.8256 17.6847 42.4616 17.33C42.1069 16.966 41.6263 16.784 41.0196 16.784C40.5716 16.784 40.1889 16.8913 39.8716 17.106C39.5543 17.3207 39.3256 17.6147 39.1856 17.988H37.7856C37.9723 17.26 38.3549 16.6813 38.9336 16.252C39.5123 15.8227 40.2123 15.608 41.0336 15.608ZM41.0756 21.992C41.6263 21.992 42.0743 21.824 42.4196 21.488C42.7743 21.152 42.9936 20.6667 43.0776 20.032H39.1016C39.1669 20.6293 39.3723 21.1053 39.7176 21.46C40.0629 21.8147 40.5156 21.992 41.0756 21.992ZM49.3312 15.664C49.5366 15.664 49.6719 15.6687 49.7372 15.678V17.008H49.3872C48.6686 17.008 48.1132 17.1853 47.7212 17.54C47.3292 17.8947 47.1332 18.408 47.1332 19.08V23H45.7332V15.776H47.0772V17.064C47.5346 16.1307 48.2859 15.664 49.3312 15.664ZM52.1648 14.754H50.7368V13.256H52.1648V14.754ZM52.1508 23H50.7508V15.776H52.1508V23ZM56.6317 13.032H60.8737C61.9563 13.032 62.7963 13.3167 63.3937 13.886C63.991 14.446 64.2897 15.2113 64.2897 16.182C64.2897 17.1433 63.991 17.9087 63.3937 18.478C62.7963 19.038 61.9563 19.318 60.8737 19.318H58.1297V23H56.6317V13.032ZM58.1297 18.002H60.8457C61.471 18.002 61.947 17.848 62.2737 17.54C62.6003 17.2227 62.7637 16.77 62.7637 16.182C62.7637 15.594 62.6003 15.1413 62.2737 14.824C61.947 14.5067 61.471 14.348 60.8457 14.348H58.1297V18.002ZM71.1855 21.922H71.5775V23C71.3722 23.028 71.1435 23.042 70.8915 23.042C70.4435 23.042 70.1075 22.9627 69.8835 22.804C69.6689 22.636 69.5382 22.3747 69.4915 22.02C69.0062 22.7853 68.2222 23.168 67.1395 23.168C66.3462 23.168 65.7162 22.9813 65.2495 22.608C64.7922 22.2253 64.5635 21.698 64.5635 21.026C64.5635 19.7193 65.4689 18.9727 67.2795 18.786L68.3435 18.674C68.7169 18.6273 68.9875 18.534 69.1555 18.394C69.3329 18.2447 69.4215 18.0347 69.4215 17.764C69.4215 17.4 69.3049 17.1387 69.0715 16.98C68.8475 16.812 68.4695 16.728 67.9375 16.728C67.3589 16.728 66.9435 16.826 66.6915 17.022C66.4395 17.2087 66.2949 17.5447 66.2575 18.03H64.8715C64.9742 16.4153 65.9962 15.608 67.9375 15.608C69.8415 15.608 70.7935 16.3173 70.7935 17.736V21.558C70.7935 21.8007 70.9242 21.922 71.1855 21.922ZM67.3495 22.076C67.9469 22.076 68.4415 21.908 68.8335 21.572C69.2255 21.236 69.4215 20.76 69.4215 20.144V19.388C69.2442 19.5373 68.9455 19.6353 68.5255 19.682L67.5175 19.794C66.9762 19.8593 66.5889 19.99 66.3555 20.186C66.1222 20.3727 66.0055 20.6387 66.0055 20.984C66.0055 21.3293 66.1175 21.6 66.3415 21.796C66.5749 21.9827 66.9109 22.076 67.3495 22.076ZM75.9553 18.254L76.7953 15.776H78.2793L75.3393 23.91C75.0966 24.6007 74.7746 25.086 74.3733 25.366C73.9719 25.646 73.4026 25.786 72.6653 25.786C72.4133 25.786 72.1706 25.772 71.9373 25.744V24.61H72.6373C73.2626 24.61 73.6826 24.3207 73.8973 23.742C73.9159 23.686 73.9439 23.5973 73.9813 23.476C74.0279 23.3547 74.0653 23.2613 74.0933 23.196L71.4193 15.776H72.9453L73.7853 18.254C74.2333 19.6353 74.5926 20.788 74.8633 21.712C75.2273 20.5267 75.5913 19.374 75.9553 18.254ZM80.3969 23H78.9969V13.032H80.3969V23ZM88.1797 21.922H88.5717V23C88.3664 23.028 88.1377 23.042 87.8857 23.042C87.4377 23.042 87.1017 22.9627 86.8777 22.804C86.663 22.636 86.5324 22.3747 86.4857 22.02C86.0004 22.7853 85.2164 23.168 84.1337 23.168C83.3404 23.168 82.7104 22.9813 82.2437 22.608C81.7864 22.2253 81.5577 21.698 81.5577 21.026C81.5577 19.7193 82.463 18.9727 84.2737 18.786L85.3377 18.674C85.711 18.6273 85.9817 18.534 86.1497 18.394C86.327 18.2447 86.4157 18.0347 86.4157 17.764C86.4157 17.4 86.299 17.1387 86.0657 16.98C85.8417 16.812 85.4637 16.728 84.9317 16.728C84.353 16.728 83.9377 16.826 83.6857 17.022C83.4337 17.2087 83.289 17.5447 83.2517 18.03H81.8657C81.9684 16.4153 82.9904 15.608 84.9317 15.608C86.8357 15.608 87.7877 16.3173 87.7877 17.736V21.558C87.7877 21.8007 87.9184 21.922 88.1797 21.922ZM84.3437 22.076C84.941 22.076 85.4357 21.908 85.8277 21.572C86.2197 21.236 86.4157 20.76 86.4157 20.144V19.388C86.2384 19.5373 85.9397 19.6353 85.5197 19.682L84.5117 19.794C83.9704 19.8593 83.583 19.99 83.3497 20.186C83.1164 20.3727 82.9997 20.6387 82.9997 20.984C82.9997 21.3293 83.1117 21.6 83.3357 21.796C83.569 21.9827 83.905 22.076 84.3437 22.076ZM95.2222 20.97C95.2222 21.6047 95.0029 22.1087 94.5642 22.482C94.1349 22.8553 93.5236 23.0793 92.7302 23.154L92.1842 23.784H92.3242C92.7256 23.784 93.0476 23.8867 93.2902 24.092C93.5329 24.3067 93.6542 24.5727 93.6542 24.89C93.6542 25.31 93.4862 25.6367 93.1502 25.87C92.8236 26.1127 92.3289 26.234 91.6662 26.234C91.3489 26.234 91.0502 26.206 90.7702 26.15V25.464C91.0316 25.5013 91.3022 25.52 91.5822 25.52C92.1702 25.52 92.4642 25.3147 92.4642 24.904C92.4642 24.5307 92.1982 24.344 91.6662 24.344C91.4889 24.344 91.3582 24.3487 91.2742 24.358V23.826L91.7922 23.168C90.0376 23.0653 89.1182 22.244 89.0342 20.704H90.4342C90.4902 21.208 90.6536 21.5627 90.9242 21.768C91.1949 21.9733 91.6242 22.076 92.2122 22.076C93.2762 22.076 93.8082 21.74 93.8082 21.068C93.8082 20.7787 93.6962 20.5547 93.4722 20.396C93.2482 20.2373 92.8469 20.1067 92.2682 20.004L91.5262 19.864C89.9956 19.584 89.2302 18.8653 89.2302 17.708C89.2302 17.064 89.4776 16.5553 89.9722 16.182C90.4669 15.7993 91.1482 15.608 92.0162 15.608C94.0042 15.608 95.0216 16.4153 95.0682 18.03H93.7102C93.6822 17.5447 93.5329 17.204 93.2622 17.008C92.9916 16.8027 92.5762 16.7 92.0162 16.7C91.5682 16.7 91.2229 16.784 90.9802 16.952C90.7376 17.12 90.6162 17.358 90.6162 17.666C90.6162 17.946 90.7236 18.1653 90.9382 18.324C91.1529 18.4733 91.4936 18.5947 91.9602 18.688L92.7162 18.814C93.6029 18.982 94.2422 19.234 94.6342 19.57C95.0262 19.906 95.2222 20.3727 95.2222 20.97ZM97.6645 23H96.2645V15.776H97.6645V23ZM102.843 15.608C103.637 15.608 104.257 15.832 104.705 16.28C105.153 16.7187 105.377 17.344 105.377 18.156V23H103.977V18.352C103.977 17.344 103.469 16.84 102.451 16.84C101.985 16.84 101.565 17.0173 101.191 17.372C100.818 17.736 100.631 18.254 100.631 18.926V23H99.2313V15.776H100.575V16.854C101.126 16.0233 101.882 15.608 102.843 15.608Z" fill="white"/>
<line x1="116.5" y1="30" x2="116.5" y2="6" stroke="#B3B3B3"/>
<g clip-path="url(#clip0_1_1499)">
<path d="M137 19.2953C137.36 19.7834 137.818 20.1873 138.345 20.4796C138.872 20.7718 139.454 20.9456 140.053 20.9891C140.652 21.0327 141.253 20.945 141.815 20.7319C142.378 20.5189 142.889 20.1855 143.313 19.7544L145.825 17.2039C146.587 16.4022 147.009 15.3284 147 14.2139C146.99 13.0993 146.55 12.0332 145.774 11.245C144.998 10.4569 143.948 10.0098 142.85 10.0002C141.752 9.99048 140.695 10.4189 139.905 11.1933L138.465 12.647" stroke="white" stroke-width="1.5" stroke-linecap="round" stroke-linejoin="round"/>
<path d="M139 17.7047C138.676 17.2166 138.264 16.8127 137.789 16.5204C137.315 16.2282 136.791 16.0544 136.252 16.0109C135.713 15.9673 135.172 16.055 134.666 16.2681C134.16 16.4811 133.7 16.8145 133.318 17.2456L131.058 19.7961C130.371 20.5978 129.992 21.6716 130 22.7861C130.009 23.9007 130.405 24.9668 131.104 25.755C131.802 26.5431 132.747 26.9902 133.735 26.9998C134.723 27.0095 135.675 26.5811 136.385 25.8067L137.674 24.353" stroke="white" stroke-width="1.5" stroke-linecap="round" stroke-linejoin="round"/>
</g>
<line x1="160.5" y1="30" x2="160.5" y2="6" stroke="#B3B3B3"/>
<g clip-path="url(#clip1_1_1499)">
<path d="M189.954 12.3655L187.54 25.0946C187.358 25.9929 186.883 26.2164 186.208 25.7934L182.529 22.7628L180.754 24.6713C180.557 24.8909 180.393 25.0746 180.014 25.0746L180.279 20.8861L187.097 13.9986C187.394 13.7031 187.033 13.5394 186.636 13.8349L178.207 19.7681L174.578 18.4985C173.789 18.2229 173.774 17.616 174.742 17.1929L188.936 11.0799C189.594 10.8044 190.169 11.2436 189.954 12.3655Z" fill="white"/>
</g>
<line x1="204.5" y1="30" x2="204.5" y2="6" stroke="#B3B3B3"/>
<g clip-path="url(#clip2_1_1499)">
<path d="M237 17.7424C237 23.1231 232.605 27.4849 227.182 27.4849C225.46 27.4849 223.843 27.0449 222.436 26.2727L217 28L218.772 22.7729C217.878 21.3049 217.363 19.5831 217.363 17.7424C217.363 12.3618 221.759 8 227.182 8C232.605 8 237 12.3618 237 17.7424ZM227.182 9.55156C222.63 9.55156 218.927 13.226 218.927 17.7424C218.927 19.5347 219.511 21.1944 220.5 22.5447L219.468 25.5867L222.64 24.5784C223.944 25.4342 225.505 25.9333 227.182 25.9333C231.733 25.9333 235.437 22.2593 235.437 17.7429C235.437 13.2264 231.734 9.55156 227.182 9.55156ZM232.14 19.9862C232.079 19.8869 231.919 19.8269 231.678 19.7076C231.438 19.5882 230.254 19.0102 230.034 18.9309C229.813 18.8513 229.652 18.8113 229.492 19.0502C229.332 19.2893 228.871 19.8269 228.73 19.9862C228.59 20.146 228.449 20.166 228.208 20.0464C227.968 19.9271 227.193 19.6747 226.273 18.8613C225.558 18.2284 225.075 17.4471 224.934 17.2078C224.794 16.9689 224.92 16.8398 225.04 16.7209C225.148 16.6138 225.281 16.442 225.401 16.3027C225.522 16.1631 225.562 16.0638 225.642 15.9042C225.722 15.7449 225.682 15.6056 225.622 15.4858C225.562 15.3664 225.08 14.1913 224.879 13.7131C224.679 13.2353 224.479 13.3149 224.338 13.3149C224.198 13.3149 224.037 13.2949 223.877 13.2949C223.716 13.2949 223.455 13.3547 223.235 13.5936C223.014 13.8327 222.393 14.4104 222.393 15.5853C222.393 16.7604 223.255 17.8958 223.375 18.0549C223.496 18.214 225.04 20.7038 227.486 21.66C229.933 22.6158 229.933 22.2969 230.375 22.2569C230.816 22.2171 231.798 21.6793 232 21.122C232.2 20.5638 232.2 20.0858 232.14 19.9862Z" fill="white"/>
</g>
<defs>
<clipPath id="clip0_1_1499">
<rect width="24" height="24" fill="white" transform="translate(126 6)"/>
</clipPath>
<clipPath id="clip1_1_1499">
<rect width="24" height="24" fill="white" transform="translate(171 6)"/>
</clipPath>
<clipPath id="clip2_1_1499">
<rect width="24" height="24" fill="white" transform="translate(215 6)"/>
</clipPath>
</defs>
</svg>
