<svg width="58" height="48" viewBox="0 0 58 48" fill="none" xmlns="http://www.w3.org/2000/svg">
<path d="M57.9247 19.9314C57.348 27.3763 53.7098 34.976 48.5493 40.2416C43.3671 45.5579 36.664 48.5401 29.4298 47.9188C22.1745 47.3385 15.6357 43.4653 10.3692 38.4885C5.14903 33.4793 1.20246 27.365 0.212656 21.5472C-0.770824 15.6667 1.68788 11.1231 6.94669 7.56054C12.15 4.03464 20.1597 1.492 28.9654 0.405919C37.7957 -0.609729 45.5111 0.228427 50.668 3.51133C55.858 6.74703 58.4895 12.4254 57.9247 19.9314Z" fill="white"/>
<path d="M44.2194 18.6549C44.0136 23.3965 41.6434 28.0676 38.124 31.3329C34.5912 34.6179 29.9049 36.4957 24.7521 36.1485C19.5889 35.8216 14.8611 33.4164 11.1506 30.1849C7.46185 26.9386 4.78959 22.8661 4.23322 18.8451C3.67896 14.7987 5.46749 11.5243 9.0291 9.05839C12.5661 6.60872 17.8804 4.96762 23.7947 4.55981C29.7208 4.18229 35.0288 5.19794 38.6951 7.63352C42.3768 10.0494 44.4182 13.8838 44.2194 18.6549Z" fill="white"/>
<path d="M29.8916 16.2568C29.8916 20.9814 25.2819 24.9905 19.6072 24.6475C13.9367 24.3221 8.954 20.1313 8.4454 15.8546C7.93469 11.5624 12.5599 8.48656 18.7488 8.36612C24.9335 8.25836 29.8965 11.5159 29.8916 16.2568Z" fill="white"/>
<path d="M20.4149 17.4318C21.0264 17.8756 21.445 18.5375 21.5846 19.2814L20.155 19.5758C20.0847 19.1197 19.8401 18.7089 19.4729 18.4305C19.0982 18.1404 18.6439 17.995 18.1101 17.9946C17.5846 17.9946 17.1615 18.122 16.8407 18.377C16.6878 18.491 16.5644 18.64 16.4807 18.8115C16.397 18.983 16.3554 19.1722 16.3595 19.3631C16.3595 19.6758 16.4508 19.9214 16.6334 20.0998C16.8161 20.2782 17.1034 20.4078 17.4954 20.4886L19.4328 20.9042C20.9657 21.2436 21.7321 22.0609 21.7321 23.3559C21.7321 24.1955 21.4178 24.8632 20.7893 25.3591C20.1609 25.8549 19.3298 26.1024 18.2962 26.1014C17.3071 26.1014 16.4698 25.8667 15.7841 25.3971C15.0985 24.9275 14.7018 24.2732 14.5941 23.4341L16.1178 23.113C16.2255 23.6764 16.4831 24.103 16.8905 24.3927C17.298 24.6824 17.8103 24.8275 18.4276 24.828C19.0149 24.828 19.4757 24.7008 19.8101 24.4463C19.9696 24.3313 20.0987 24.179 20.1861 24.0026C20.2735 23.8262 20.3166 23.631 20.3116 23.4341C20.3116 23.0946 20.2159 22.8364 20.0243 22.6594C19.8328 22.4823 19.5099 22.3438 19.0556 22.2438L17.1041 21.8423C15.5989 21.4939 14.8461 20.6809 14.8456 19.4032C14.8456 18.6083 15.1463 17.9673 15.7476 17.4804C16.3489 16.9935 17.1451 16.75 18.1361 16.75C19.0366 16.7491 19.7963 16.9763 20.4149 17.4318Z" fill="black"/>
<path d="M32.9582 25.914H31.568V20.1786L28.4939 25.914H27.6123L24.5382 20.1786V25.914H23.1487V16.9365H24.4047L28.0534 23.7298L31.7148 16.9365H32.9575L32.9582 25.914Z" fill="black"/>
<path d="M43.517 20.8215C43.5348 21.1436 43.5437 21.3492 43.5437 21.4384C43.5437 22.7696 43.1206 23.8794 42.2743 24.7678C41.428 25.6562 40.3455 26.1007 39.0267 26.1011C37.7084 26.1011 36.5947 25.6501 35.6857 24.7481C34.7767 23.8461 34.3221 22.7384 34.3221 21.4251C34.3221 20.1206 34.7722 19.0151 35.6723 18.1084C36.5724 17.2017 37.6772 16.7483 38.9867 16.7483C39.9669 16.7483 40.8445 16.9805 41.6196 17.4449C42.3746 17.8858 42.9515 18.5782 43.25 19.4015L41.9533 19.8572C41.3833 18.6866 40.3944 18.1016 38.9867 18.102C38.5612 18.0938 38.1387 18.1747 37.7463 18.3397C37.3539 18.5046 37.0002 18.7499 36.7078 19.0599C36.0891 19.699 35.7796 20.4874 35.7791 21.4251C35.7791 22.3717 36.0955 23.1622 36.7282 23.7966C37.3609 24.4309 38.1404 24.7481 39.0667 24.7481C39.8774 24.7481 40.5591 24.5091 41.1117 24.0311C41.6643 23.5531 42.0066 22.9222 42.1387 22.1386H38.5834V20.8215H43.517Z" fill="black"/>
</svg>
