<svg width="44" height="44" viewBox="0 0 44 44" fill="none" xmlns="http://www.w3.org/2000/svg">
<circle opacity="0.8" cx="22" cy="22" r="22" fill="white" fill-opacity="0.28"/>
<path d="M15.3999 12.1021C13.5904 12.1021 12.0999 13.5926 12.0999 15.4021V28.602C12.0999 30.4115 13.5904 31.9021 15.3999 31.9021H28.5999C30.4094 31.9021 31.8999 30.4115 31.8999 28.602V15.4021C31.8999 13.5926 30.4094 12.1021 28.5999 12.1021H15.3999ZM15.3999 14.3021H28.5999C29.2214 14.3021 29.6999 14.7805 29.6999 15.4021V28.602C29.6999 29.2236 29.2214 29.702 28.5999 29.702H15.3999C14.7784 29.702 14.2999 29.2236 14.2999 28.602V15.4021C14.2999 14.7805 14.7784 14.3021 15.3999 14.3021ZM21.9999 16.5021V24.202C21.9999 24.8236 21.5214 25.302 20.8999 25.302C20.2784 25.302 19.7999 24.8236 19.7999 24.202C19.7999 23.5805 20.2784 23.102 20.8999 23.102V20.9021C19.0904 20.9021 17.5999 22.3926 17.5999 24.202C17.5999 26.0115 19.0904 27.502 20.8999 27.502C22.7094 27.502 24.1999 26.0115 24.1999 24.202V20.0577C24.8777 20.5405 25.5849 20.9021 26.3999 20.9021V18.7021C26.3478 18.7021 25.5889 18.4611 25.0593 17.9995C24.5297 17.5379 24.1999 16.9585 24.1999 16.5021H21.9999Z" fill="white" fill-opacity="0.72"/>
</svg>
