<svg width="795" height="56" viewBox="0 0 795 56" fill="none" xmlns="http://www.w3.org/2000/svg">
<path d="M739.742 35.6666C739.342 35.6666 739.001 35.9488 738.925 36.3405L738.646 37.7695C737.962 38.0281 737.33 38.3895 736.775 38.8453L735.404 38.3733C735.027 38.2433 734.611 38.3994 734.411 38.7444L733.155 40.9222C732.956 41.268 733.028 41.707 733.329 41.9687L734.428 42.9241C734.37 43.2752 734.333 43.6327 734.333 44C734.333 44.3672 734.37 44.7247 734.428 45.0758L733.329 46.0312C733.028 46.2929 732.956 46.7319 733.155 47.0778L734.411 49.2555C734.61 49.6013 735.027 49.7574 735.404 49.6282L736.775 49.1562C737.33 49.6118 737.963 49.9719 738.646 50.2304L738.925 51.6595C739.001 52.0511 739.342 52.3333 739.742 52.3333H742.258C742.657 52.3333 742.998 52.0511 743.075 51.6595L743.353 50.2304C744.037 49.9718 744.67 49.6105 745.225 49.1546L746.595 49.6266C746.973 49.7566 747.388 49.6013 747.588 49.2555L748.845 47.0761C749.044 46.7303 748.972 46.2929 748.671 46.0312L747.572 45.0758C747.629 44.7247 747.666 44.3672 747.666 44C747.666 43.6327 747.629 43.2752 747.572 42.9241L748.671 41.9687C748.972 41.707 749.044 41.268 748.845 40.9222L747.588 38.7444C747.389 38.3986 746.973 38.2425 746.595 38.3717L745.225 38.8437C744.67 38.3881 744.037 38.028 743.353 37.7695L743.075 36.3405C742.998 35.9488 742.657 35.6666 742.258 35.6666H739.742ZM741 40.6666C742.841 40.6666 744.333 42.1591 744.333 44C744.333 45.8408 742.841 47.3333 741 47.3333C739.159 47.3333 737.666 45.8408 737.666 44C737.666 42.1591 739.159 40.6666 741 40.6666Z" fill="white"/>
<path d="M779.167 36.5C778.256 36.5 777.5 37.2557 777.5 38.1666V40.6666C777.499 40.7771 777.519 40.8867 777.56 40.9892C777.601 41.0916 777.662 41.1849 777.74 41.2635C777.817 41.3422 777.91 41.4046 778.012 41.4473C778.114 41.4899 778.223 41.5118 778.333 41.5118C778.444 41.5118 778.553 41.4899 778.655 41.4473C778.757 41.4046 778.849 41.3422 778.927 41.2635C779.004 41.1849 779.066 41.0916 779.107 40.9892C779.148 40.8867 779.168 40.7771 779.167 40.6666V38.1666H781.667C781.777 38.1682 781.887 38.1478 781.989 38.1066C782.092 38.0654 782.185 38.0043 782.264 37.9268C782.342 37.8492 782.405 37.7568 782.447 37.6549C782.49 37.5531 782.512 37.4437 782.512 37.3333C782.512 37.2229 782.49 37.1135 782.447 37.0116C782.405 36.9098 782.342 36.8174 782.264 36.7398C782.185 36.6623 782.092 36.6012 781.989 36.56C781.887 36.5188 781.777 36.4984 781.667 36.5H779.167ZM788.333 36.5C788.223 36.4984 788.113 36.5188 788.011 36.56C787.908 36.6012 787.815 36.6623 787.736 36.7398C787.658 36.8174 787.595 36.9098 787.553 37.0116C787.51 37.1135 787.488 37.2229 787.488 37.3333C787.488 37.4437 787.51 37.5531 787.553 37.6549C787.595 37.7568 787.658 37.8492 787.736 37.9268C787.815 38.0043 787.908 38.0654 788.011 38.1066C788.113 38.1478 788.223 38.1682 788.333 38.1666H790.833V40.6666C790.832 40.7771 790.852 40.8867 790.893 40.9892C790.935 41.0916 790.996 41.1849 791.073 41.2635C791.151 41.3422 791.243 41.4046 791.345 41.4473C791.447 41.4899 791.556 41.5118 791.667 41.5118C791.777 41.5118 791.887 41.4899 791.988 41.4473C792.09 41.4046 792.183 41.3422 792.26 41.2635C792.338 41.1849 792.399 41.0916 792.44 40.9892C792.481 40.8867 792.502 40.7771 792.5 40.6666V38.1666C792.5 37.2557 791.744 36.5 790.833 36.5H788.333ZM778.32 46.4886C778.1 46.492 777.889 46.5829 777.736 46.7413C777.582 46.8996 777.497 47.1126 777.5 47.3333V49.8333C777.5 50.7442 778.256 51.5 779.167 51.5H781.667C781.777 51.5015 781.887 51.4811 781.989 51.4399C782.092 51.3988 782.185 51.3376 782.264 51.2601C782.342 51.1826 782.405 51.0902 782.447 50.9883C782.49 50.8864 782.512 50.7771 782.512 50.6666C782.512 50.5562 782.49 50.4469 782.447 50.345C782.405 50.2431 782.342 50.1507 782.264 50.0732C782.185 49.9956 782.092 49.9345 781.989 49.8933C781.887 49.8521 781.777 49.8317 781.667 49.8333H779.167V47.3333C779.168 47.2218 779.147 47.1111 779.105 47.0079C779.063 46.9046 779.001 46.8108 778.922 46.732C778.843 46.6532 778.749 46.5911 778.646 46.5493C778.543 46.5075 778.432 46.4868 778.32 46.4886ZM791.654 46.4886C791.433 46.492 791.223 46.5829 791.069 46.7413C790.915 46.8996 790.83 47.1126 790.833 47.3333V49.8333H788.333C788.223 49.8317 788.113 49.8521 788.011 49.8933C787.908 49.9345 787.815 49.9956 787.736 50.0732C787.658 50.1507 787.595 50.2431 787.553 50.345C787.51 50.4469 787.488 50.5562 787.488 50.6666C787.488 50.7771 787.51 50.8864 787.553 50.9883C787.595 51.0902 787.658 51.1826 787.736 51.2601C787.815 51.3376 787.908 51.3988 788.011 51.4399C788.113 51.4811 788.223 51.5015 788.333 51.5H790.833C791.744 51.5 792.5 50.7442 792.5 49.8333V47.3333C792.502 47.2218 792.481 47.1111 792.439 47.0079C792.397 46.9046 792.334 46.8108 792.255 46.732C792.177 46.6532 792.083 46.5911 791.979 46.5493C791.876 46.5075 791.765 46.4868 791.654 46.4886Z" fill="white"/>
<path d="M140.252 40.334V39.032H146.846V40.222C145.698 41.4727 144.844 42.8073 144.284 44.226C143.733 45.6447 143.435 47.236 143.388 49H141.848C141.923 45.724 143.047 42.8353 145.222 40.334H140.252ZM149.378 43.792H147.684V42.126H149.378V43.792ZM149.378 49H147.684V47.334H149.378V49ZM156.113 43.68C157.233 44.2213 157.793 45.052 157.793 46.172C157.793 47.0867 157.466 47.824 156.813 48.384C156.15 48.944 155.287 49.224 154.223 49.224C153.056 49.224 152.151 48.9253 151.507 48.328C150.872 47.7307 150.555 46.9093 150.555 45.864H152.011C152.048 47.236 152.781 47.922 154.209 47.922C154.834 47.922 155.329 47.7633 155.693 47.446C156.057 47.1193 156.239 46.6853 156.239 46.144C156.239 45.5747 156.052 45.1313 155.679 44.814C155.305 44.4873 154.787 44.324 154.125 44.324H153.383V43.162H154.083C154.708 43.162 155.184 43.0313 155.511 42.77C155.847 42.4993 156.015 42.112 156.015 41.608C156.015 41.132 155.847 40.7587 155.511 40.488C155.184 40.2173 154.731 40.082 154.153 40.082C152.911 40.082 152.263 40.67 152.207 41.846H150.737C150.755 40.894 151.063 40.152 151.661 39.62C152.267 39.0787 153.103 38.808 154.167 38.808C155.175 38.808 155.977 39.0507 156.575 39.536C157.181 40.0213 157.485 40.684 157.485 41.524C157.485 42.4853 157.027 43.204 156.113 43.68ZM164.933 45.29H166.263V46.592H164.933V49H163.435V46.592H158.507V45.164L163.295 39.032H164.933V45.29ZM163.449 45.29V40.796L159.949 45.29H163.449ZM170.907 49H169.549L173.119 39.032H174.477L170.907 49ZM183.621 43.68C184.741 44.2213 185.301 45.052 185.301 46.172C185.301 47.0867 184.974 47.824 184.321 48.384C183.658 48.944 182.795 49.224 181.731 49.224C180.564 49.224 179.659 48.9253 179.015 48.328C178.38 47.7307 178.063 46.9093 178.063 45.864H179.519C179.556 47.236 180.289 47.922 181.717 47.922C182.342 47.922 182.837 47.7633 183.201 47.446C183.565 47.1193 183.747 46.6853 183.747 46.144C183.747 45.5747 183.56 45.1313 183.187 44.814C182.813 44.4873 182.295 44.324 181.633 44.324H180.891V43.162H181.591C182.216 43.162 182.692 43.0313 183.019 42.77C183.355 42.4993 183.523 42.112 183.523 41.608C183.523 41.132 183.355 40.7587 183.019 40.488C182.692 40.2173 182.239 40.082 181.661 40.082C180.419 40.082 179.771 40.67 179.715 41.846H178.245C178.263 40.894 178.571 40.152 179.169 39.62C179.775 39.0787 180.611 38.808 181.675 38.808C182.683 38.808 183.485 39.0507 184.083 39.536C184.689 40.0213 184.993 40.684 184.993 41.524C184.993 42.4853 184.535 43.204 183.621 43.68ZM188.042 47.698H193.25V49H186.362L186.404 48.37C186.441 47.6887 186.595 47.0353 186.866 46.41C187.174 45.6913 187.808 45.0847 188.77 44.59L189.904 43.96C190.501 43.6427 190.93 43.3207 191.192 42.994C191.453 42.658 191.584 42.252 191.584 41.776C191.584 41.2627 191.42 40.8567 191.094 40.558C190.776 40.2593 190.333 40.11 189.764 40.11C188.485 40.11 187.846 40.7773 187.846 42.112H186.376C186.366 41.0667 186.66 40.2547 187.258 39.676C187.855 39.0973 188.704 38.808 189.806 38.808C190.814 38.808 191.616 39.0787 192.214 39.62C192.82 40.1707 193.124 40.8707 193.124 41.72C193.124 42.42 192.928 43.036 192.536 43.568C192.144 44.1 191.528 44.59 190.688 45.038L189.694 45.598C189.124 45.9153 188.714 46.228 188.462 46.536C188.219 46.844 188.079 47.2313 188.042 47.698ZM195.985 43.792H194.291V42.126H195.985V43.792ZM195.985 49H194.291V47.334H195.985V49ZM200.914 42.476C201.978 42.476 202.814 42.7933 203.42 43.428C204.018 44.0533 204.316 44.8513 204.316 45.822C204.316 46.83 203.99 47.6467 203.336 48.272C202.674 48.9067 201.806 49.224 200.732 49.224C199.752 49.224 198.936 48.9487 198.282 48.398C197.648 47.8567 197.293 47.124 197.218 46.2H198.674C198.74 46.732 198.959 47.1567 199.332 47.474C199.715 47.7913 200.182 47.95 200.732 47.95C201.348 47.95 201.848 47.754 202.23 47.362C202.622 46.9607 202.818 46.4473 202.818 45.822C202.818 45.1873 202.622 44.674 202.23 44.282C201.848 43.8807 201.348 43.68 200.732 43.68C199.836 43.68 199.197 44.0533 198.814 44.8H197.442L198.324 39.032H203.742V40.334H199.5L199.052 43.19C199.584 42.714 200.205 42.476 200.914 42.476ZM204.469 40.334V39.032H211.063V40.222C209.915 41.4727 209.061 42.8073 208.501 44.226C207.95 45.6447 207.651 47.236 207.605 49H206.065C206.139 45.724 207.264 42.8353 209.439 40.334H204.469Z" fill="white"/>
<path d="M68 38C67.448 38 67 38.448 67 39V49C67 49.552 67.448 50 68 50C68.552 50 69 49.552 69 49V39C69 38.448 68.552 38 68 38ZM52.0508 38.9297C51.514 38.9036 51 39.3214 51 39.9297V48.0703C51 48.8813 51.9132 49.3547 52.5762 48.8867L58.3438 44.8164C58.9078 44.4184 58.9078 43.5816 58.3438 43.1836L52.5762 39.1133C52.4104 38.9963 52.2297 38.9384 52.0508 38.9297ZM60.0508 38.9297C59.514 38.9036 59 39.3214 59 39.9297V48.0703C59 48.8813 59.9132 49.3547 60.5762 48.8867L66.3438 44.8164C66.9078 44.4184 66.9078 43.5816 66.3438 43.1836L60.5762 39.1133C60.4104 38.9963 60.2297 38.9384 60.0508 38.9297Z" fill="white"/>
<path d="M104.579 37.3236C104.436 37.3236 104.29 37.3778 104.17 37.4961L100.167 41.5H98.4999C97.5791 41.5 96.8333 42.2459 96.8333 43.1667V44.8334C96.8333 45.7542 97.5791 46.5 98.4999 46.5H100.167L104.17 50.5039C104.29 50.6231 104.436 50.6765 104.579 50.6765C104.879 50.6765 105.167 50.4438 105.167 50.0922V37.9079C105.167 37.5563 104.879 37.3236 104.579 37.3236ZM106.926 41.391C106.76 41.391 106.598 41.4405 106.461 41.5331C106.323 41.6257 106.216 41.7572 106.154 41.9108C106.092 42.0644 106.077 42.2331 106.111 42.3954C106.145 42.5576 106.226 42.706 106.345 42.8217C107.003 43.4801 107.003 44.52 106.345 45.1784C106.267 45.2558 106.206 45.3477 106.164 45.4488C106.122 45.55 106.1 45.6584 106.1 45.7679C106.1 45.8774 106.122 45.9859 106.163 46.0871C106.205 46.1883 106.267 46.2803 106.344 46.3578C106.421 46.4353 106.513 46.4968 106.614 46.5387C106.716 46.5807 106.824 46.6023 106.934 46.6024C107.043 46.6025 107.152 46.581 107.253 46.5391C107.354 46.4972 107.446 46.4358 107.523 46.3584C108.818 45.0635 108.818 42.9382 107.523 41.6433C107.446 41.5634 107.353 41.5 107.25 41.4567C107.148 41.4133 107.037 41.391 106.926 41.391Z" fill="white"/>
<path d="M8 38.822V49.179C8 49.968 8.871 50.446 9.537 50.023L17.674 44.845C18.292 44.452 18.292 43.551 17.674 43.158L9.537 37.978C8.871 37.554 8 38.033 8 38.822Z" fill="white"/>
<rect opacity="0.6" y="7" width="795" height="2" rx="1" fill="white"/>
<rect y="7" width="208" height="2" rx="1" fill="white"/>
<circle cx="209" cy="8" r="8" fill="white"/>
</svg>
