<svg width="80" height="36" viewBox="0 0 80 36" fill="none" xmlns="http://www.w3.org/2000/svg">
<rect width="80" height="36" fill="#E8EAEF"/>
<path d="M22 13C16.79 13 12.7812 17.5898 12.7812 17.5898L12.4102 18L12.7812 18.4102C12.7812 18.4102 16.436 22.5776 21.2969 22.9609C21.5288 22.9902 21.7607 23 22 23C22.2393 23 22.4712 22.9902 22.7031 22.9609C27.564 22.5776 31.2188 18.4102 31.2188 18.4102L31.5898 18L31.2188 17.5898C31.2188 17.5898 27.21 13 22 13ZM22 14.25C23.377 14.25 24.6465 14.626 25.75 15.1289C26.1479 15.7881 26.375 16.5474 26.375 17.375C26.375 19.6333 24.6807 21.4888 22.4883 21.7305C22.4761 21.7329 22.4614 21.728 22.4492 21.7305C22.3003 21.7378 22.1514 21.75 22 21.75C21.834 21.75 21.6729 21.7402 21.5117 21.7305C19.3193 21.4888 17.625 19.6333 17.625 17.375C17.625 16.5596 17.8447 15.8003 18.2305 15.1484H18.2109C19.3242 14.6357 20.6084 14.25 22 14.25ZM22 15.5C20.9648 15.5 20.125 16.3398 20.125 17.375C20.125 18.4102 20.9648 19.25 22 19.25C23.0352 19.25 23.875 18.4102 23.875 17.375C23.875 16.3398 23.0352 15.5 22 15.5ZM16.5312 16.0859C16.4336 16.5059 16.375 16.9282 16.375 17.375C16.375 18.4712 16.6875 19.4966 17.2344 20.3633C15.6597 19.4526 14.5659 18.3662 14.207 18C14.5073 17.6924 15.3447 16.877 16.5312 16.0859ZM27.4688 16.0859C28.6553 16.877 29.4927 17.6924 29.793 18C29.4341 18.3662 28.3403 19.4526 26.7656 20.3633C27.3125 19.4966 27.625 18.4712 27.625 17.375C27.625 16.9282 27.5664 16.501 27.4688 16.0859Z" fill="#333333"/>
<path d="M48.804 19.29H50.134V20.592H48.804V23H47.306V20.592H42.378V19.164L47.166 13.032H48.804V19.29ZM47.32 19.29V14.796L43.82 19.29H47.32ZM54.6252 16.476C55.6892 16.476 56.5245 16.7933 57.1312 17.428C57.7285 18.0533 58.0272 18.8513 58.0272 19.822C58.0272 20.83 57.7005 21.6467 57.0472 22.272C56.3845 22.9067 55.5165 23.224 54.4432 23.224C53.4632 23.224 52.6465 22.9487 51.9932 22.398C51.3585 21.8567 51.0038 21.124 50.9292 20.2H52.3852C52.4505 20.732 52.6698 21.1567 53.0432 21.474C53.4258 21.7913 53.8925 21.95 54.4432 21.95C55.0592 21.95 55.5585 21.754 55.9412 21.362C56.3332 20.9607 56.5292 20.4473 56.5292 19.822C56.5292 19.1873 56.3332 18.674 55.9412 18.282C55.5585 17.8807 55.0592 17.68 54.4432 17.68C53.5472 17.68 52.9078 18.0533 52.5252 18.8H51.1532L52.0352 13.032H57.4532V14.334H53.2112L52.7632 17.19C53.2952 16.714 53.9158 16.476 54.6252 16.476ZM63.0803 16.476C64.1349 16.476 64.9656 16.7933 65.5723 17.428C66.1789 18.0813 66.4823 18.8793 66.4823 19.822C66.4823 20.83 66.1556 21.6467 65.5023 22.272C64.8396 22.9067 63.9809 23.224 62.9263 23.224C62.0396 23.224 61.2836 22.9907 60.6583 22.524C59.6409 21.7307 59.1323 20.256 59.1323 18.1C59.1323 16.4293 59.4589 15.132 60.1123 14.208C60.7749 13.2747 61.7223 12.808 62.9543 12.808C63.8783 12.808 64.6389 13.0507 65.2363 13.536C65.8336 14.012 66.2023 14.6793 66.3423 15.538H64.9003C64.8069 15.0527 64.5923 14.684 64.2563 14.432C63.9203 14.1707 63.4909 14.04 62.9683 14.04C61.4283 14.04 60.6303 15.2953 60.5743 17.806C60.8449 17.3953 61.2043 17.0733 61.6523 16.84C62.1003 16.5973 62.5763 16.476 63.0803 16.476ZM61.4423 21.362C61.8156 21.754 62.3103 21.95 62.9263 21.95C63.5329 21.95 64.0276 21.754 64.4103 21.362C64.7929 20.9607 64.9843 20.452 64.9843 19.836C64.9843 19.22 64.7929 18.7067 64.4103 18.296C64.0276 17.904 63.5329 17.708 62.9263 17.708C62.3103 17.708 61.8156 17.904 61.4423 18.296C61.0503 18.688 60.8543 19.2013 60.8543 19.836C60.8543 20.4613 61.0503 20.97 61.4423 21.362Z" fill="#333333"/>
</svg>
