<svg width="44" height="44" viewBox="0 0 44 44" fill="none" xmlns="http://www.w3.org/2000/svg">
<circle opacity="0.8" cx="22" cy="22" r="22" fill="white" fill-opacity="0.28"/>
<path d="M22.0001 13.2021C22.0001 13.2021 15.1202 13.2021 13.4042 13.6619C12.4571 13.9149 11.7129 14.6602 11.4599 15.6062C11.0001 17.3222 11.0001 22.0021 11.0001 22.0021C11.0001 22.0021 11.0001 26.682 11.4599 28.398C11.7129 29.3451 12.4582 30.0894 13.4042 30.3424C15.1202 30.8022 22.0001 30.8021 22.0001 30.8021C22.0001 30.8021 28.88 30.8022 30.596 30.3424C31.542 30.0894 32.2874 29.344 32.5404 28.398C33.0002 26.682 33.0001 22.0021 33.0001 22.0021C33.0001 22.0021 33.0002 17.3222 32.5404 15.6062C32.2874 14.6602 31.542 13.9149 30.596 13.6619C28.88 13.2021 22.0001 13.2021 22.0001 13.2021ZM22.0001 15.4021C25.1703 15.4021 29.1401 15.5491 30.0267 15.7867C30.2126 15.8362 30.365 15.9886 30.4156 16.1756C30.6807 17.1634 30.8001 20.1783 30.8001 22.0021C30.8001 23.8259 30.6807 26.8398 30.4156 27.8287C30.3661 28.0146 30.2137 28.167 30.0267 28.2176C29.1412 28.4552 25.1703 28.6021 22.0001 28.6021C18.831 28.6021 14.8613 28.4552 13.9736 28.2176C13.7877 28.1681 13.6353 28.0157 13.5847 27.8287C13.3196 26.8409 13.2001 23.8259 13.2001 22.0021C13.2001 20.1783 13.3196 17.1634 13.5847 16.1734C13.6342 15.9886 13.7866 15.8362 13.9736 15.7867C14.8591 15.5491 18.8299 15.4021 22.0001 15.4021ZM19.8001 18.1908V25.8135L26.4001 22.0021L19.8001 18.1908Z" fill="white" fill-opacity="0.72"/>
</svg>
